<?xml version="1.0" encoding="UTF-8" standalone="no"?>
<svg
   xmlns:dc="http://purl.org/dc/elements/1.1/"
   xmlns:cc="http://creativecommons.org/ns#"
   xmlns:rdf="http://www.w3.org/1999/02/22-rdf-syntax-ns#"
   xmlns:svg="http://www.w3.org/2000/svg"
   xmlns="http://www.w3.org/2000/svg"
   xmlns:sodipodi="http://sodipodi.sourceforge.net/DTD/sodipodi-0.dtd"
   xmlns:inkscape="http://www.inkscape.org/namespaces/inkscape"
   inkscape:export-ydpi="576"
   inkscape:export-xdpi="576"
   inkscape:export-filename="C:\Users\RainBoyz\Desktop\Oktober 2\7 - AC.png"
   width="64pt"
   height="64pt"
   viewBox="0 0 22.577778 22.577778"
   version="1.1"
   id="svg831"
   inkscape:version="1.0 (4035a4fb49, 2020-05-01)"
   sodipodi:docname="EXPORT 64px.svg">
  <defs
     id="defs825">
    <pattern
       id="EMFhbasepattern"
       patternUnits="userSpaceOnUse"
       width="6"
       height="6"
       x="0"
       y="0" />
    <pattern
       id="EMFhbasepattern-9"
       patternUnits="userSpaceOnUse"
       width="6"
       height="6"
       x="0"
       y="0" />
    <pattern
       id="EMFhbasepattern-0"
       patternUnits="userSpaceOnUse"
       width="6"
       height="6"
       x="0"
       y="0" />
    <pattern
       id="EMFhbasepattern-7"
       patternUnits="userSpaceOnUse"
       width="6"
       height="6"
       x="0"
       y="0" />
    <pattern
       id="EMFhbasepattern-2"
       patternUnits="userSpaceOnUse"
       width="6"
       height="6"
       x="0"
       y="0" />
    <pattern
       id="EMFhbasepattern-98"
       patternUnits="userSpaceOnUse"
       width="6"
       height="6"
       x="0"
       y="0" />
    <pattern
       id="EMFhbasepattern-6"
       patternUnits="userSpaceOnUse"
       width="6"
       height="6"
       x="0"
       y="0" />
    <pattern
       id="EMFhbasepattern-01"
       patternUnits="userSpaceOnUse"
       width="6"
       height="6"
       x="0"
       y="0" />
    <pattern
       id="EMFhbasepattern-07"
       patternUnits="userSpaceOnUse"
       width="6"
       height="6"
       x="0"
       y="0" />
    <pattern
       id="EMFhbasepattern-8"
       patternUnits="userSpaceOnUse"
       width="6"
       height="6"
       x="0"
       y="0" />
    <pattern
       id="EMFhbasepattern-4"
       patternUnits="userSpaceOnUse"
       width="6"
       height="6"
       x="0"
       y="0" />
    <pattern
       id="EMFhbasepattern-40"
       patternUnits="userSpaceOnUse"
       width="6"
       height="6"
       x="0"
       y="0" />
    <pattern
       id="EMFhbasepattern-08"
       patternUnits="userSpaceOnUse"
       width="6"
       height="6"
       x="0"
       y="0" />
    <pattern
       id="EMFhbasepattern-04"
       patternUnits="userSpaceOnUse"
       width="6"
       height="6"
       x="0"
       y="0" />
    <pattern
       id="EMFhbasepattern-014"
       patternUnits="userSpaceOnUse"
       width="6"
       height="6"
       x="0"
       y="0" />
    <pattern
       id="EMFhbasepattern-27"
       patternUnits="userSpaceOnUse"
       width="6"
       height="6"
       x="0"
       y="0" />
    <pattern
       id="EMFhbasepattern-09"
       patternUnits="userSpaceOnUse"
       width="6"
       height="6"
       x="0"
       y="0" />
    <pattern
       id="EMFhbasepattern-5"
       patternUnits="userSpaceOnUse"
       width="6"
       height="6"
       x="0"
       y="0" />
    <pattern
       id="EMFhbasepattern-018"
       patternUnits="userSpaceOnUse"
       width="6"
       height="6"
       x="0"
       y="0" />
  </defs>
  <sodipodi:namedview
     id="base"
     pagecolor="#ffffff"
     bordercolor="#666666"
     borderopacity="1.0"
     inkscape:pageopacity="0.0"
     inkscape:pageshadow="2"
     inkscape:zoom="2.175182"
     inkscape:cx="40.444629"
     inkscape:cy="42.666667"
     inkscape:document-units="pt"
     inkscape:current-layer="layer1"
     showgrid="false"
     units="pt"
     inkscape:window-width="1366"
     inkscape:window-height="715"
     inkscape:window-x="-8"
     inkscape:window-y="-8"
     inkscape:window-maximized="1"
     inkscape:pagecheckerboard="true"
     inkscape:showpageshadow="false"
     inkscape:object-paths="true"
     inkscape:snap-intersection-paths="true"
     inkscape:snap-smooth-nodes="true"
     inkscape:snap-midpoints="true"
     showguides="true"
     inkscape:snap-bbox="true"
     inkscape:bbox-nodes="true"
     inkscape:snap-nodes="false"
     inkscape:snap-global="true"
     inkscape:document-rotation="0">
    <inkscape:grid
       type="xygrid"
       id="grid1378" />
    <sodipodi:guide
       position="0.97013831,21.607643"
       orientation="78.000048,0"
       id="guide1380"
       inkscape:locked="false" />
    <sodipodi:guide
       position="0.97013831,0.97013129"
       orientation="0,78.000005"
       id="guide1382"
       inkscape:locked="false" />
    <sodipodi:guide
       position="21.607639,0.97013129"
       orientation="-78.000048,0"
       id="guide1384"
       inkscape:locked="false" />
    <sodipodi:guide
       position="21.607639,21.607643"
       orientation="0,-78.000005"
       id="guide1386"
       inkscape:locked="false" />
  </sodipodi:namedview>
  <metadata
     id="metadata828">
    <rdf:RDF>
      <cc:Work
         rdf:about="">
        <dc:format>image/svg+xml</dc:format>
        <dc:type
           rdf:resource="http://purl.org/dc/dcmitype/StillImage" />
        <dc:title></dc:title>
      </cc:Work>
    </rdf:RDF>
  </metadata>
  <g
     inkscape:label="Icon"
     inkscape:groupmode="layer"
     id="layer1"
     transform="translate(0,-274.42223)">
    <g
       transform="matrix(1.2580249,0,0,1.2580249,39.01088,-77.270668)"
       style="display:inline"
       id="g482">
      <path
         id="path1529"
         d="m -28.650391,288.26953 a 0.26460996,0.26460996 0 0 0 -0.265625,0.26367 v 0.5293 c -1e-6,0.43524 0.359677,0.79297 0.794922,0.79297 h 12.169922 c 0.435245,0 0.794922,-0.35773 0.794922,-0.79297 v -0.5293 a 0.26460996,0.26460996 0 0 0 -0.265625,-0.26367 z"
         style="color:#000000;font-style:normal;font-variant:normal;font-weight:normal;font-stretch:normal;font-size:medium;line-height:normal;font-family:sans-serif;font-variant-ligatures:normal;font-variant-position:normal;font-variant-caps:normal;font-variant-numeric:normal;font-variant-alternates:normal;font-variant-east-asian:normal;font-feature-settings:normal;font-variation-settings:normal;text-indent:0;text-align:start;text-decoration:none;text-decoration-line:none;text-decoration-style:solid;text-decoration-color:#000000;letter-spacing:normal;word-spacing:normal;text-transform:none;writing-mode:lr-tb;direction:ltr;text-orientation:mixed;dominant-baseline:auto;baseline-shift:baseline;text-anchor:start;white-space:normal;shape-padding:0;shape-margin:0;inline-size:0;clip-rule:nonzero;display:inline;overflow:visible;visibility:visible;isolation:auto;mix-blend-mode:normal;color-interpolation:sRGB;color-interpolation-filters:linearRGB;solid-color:#000000;solid-opacity:1;vector-effect:none;fill:#aabfd0;fill-opacity:1;fill-rule:nonzero;stroke:none;stroke-width:0.529167;stroke-linecap:round;stroke-linejoin:round;stroke-miterlimit:4;stroke-dasharray:none;stroke-dashoffset:0;stroke-opacity:1;color-rendering:auto;image-rendering:auto;shape-rendering:auto;text-rendering:auto;enable-background:accumulate;stop-color:#000000" />
      <path
         d="m -28.650449,288.26978 a 0.26460996,0.26460996 0 0 0 -0.265615,0.26355 v 0.52916 c 0,0.0935 0.01976,0.18207 0.05013,0.26562 h 12.385808 a 0.26460996,0.26460996 0 0 1 0.265618,0.26355 v 0.26407 h 0.263548 c 0.435245,0 0.794785,-0.358 0.794785,-0.79324 v -0.52916 a 0.26460996,0.26460996 0 0 0 -0.265618,-0.26355 z"
         style="color:#000000;font-style:normal;font-variant:normal;font-weight:normal;font-stretch:normal;font-size:medium;line-height:normal;font-family:sans-serif;font-variant-ligatures:normal;font-variant-position:normal;font-variant-caps:normal;font-variant-numeric:normal;font-variant-alternates:normal;font-variant-east-asian:normal;font-feature-settings:normal;font-variation-settings:normal;text-indent:0;text-align:start;text-decoration:none;text-decoration-line:none;text-decoration-style:solid;text-decoration-color:#000000;letter-spacing:normal;word-spacing:normal;text-transform:none;writing-mode:lr-tb;direction:ltr;text-orientation:mixed;dominant-baseline:auto;baseline-shift:baseline;text-anchor:start;white-space:normal;shape-padding:0;shape-margin:0;inline-size:0;clip-rule:nonzero;display:inline;overflow:visible;visibility:visible;isolation:auto;mix-blend-mode:normal;color-interpolation:sRGB;color-interpolation-filters:linearRGB;solid-color:#000000;solid-opacity:1;vector-effect:none;fill:#7d8e9e;fill-opacity:1;fill-rule:nonzero;stroke:none;stroke-width:0.529167;stroke-linecap:round;stroke-linejoin:round;stroke-miterlimit:4;stroke-dasharray:none;stroke-dashoffset:0;stroke-opacity:1;color-rendering:auto;image-rendering:auto;shape-rendering:auto;text-rendering:auto;enable-background:accumulate;stop-color:#000000"
         id="path1240" />
      <path
         id="path1454"
         d="m -29.3125,281.75806 c -0.508296,-0.002 -0.784114,0.31372 -0.787437,0.82202 l -0.03459,5.29101 c -0.0033,0.5083 0.313723,0.7906 0.822023,0.7894 l 14.552734,-0.0346 c 0.508301,-0.001 0.735559,-0.2465 0.735559,-0.75481 v -5.29101 c 0,-0.50831 -0.227262,-0.75043 -0.735559,-0.75285 z"
         style="color:#000000;font-style:normal;font-variant:normal;font-weight:normal;font-stretch:normal;font-size:medium;line-height:normal;font-family:sans-serif;font-variant-ligatures:normal;font-variant-position:normal;font-variant-caps:normal;font-variant-numeric:normal;font-variant-alternates:normal;font-variant-east-asian:normal;font-feature-settings:normal;font-variation-settings:normal;text-indent:0;text-align:start;text-decoration:none;text-decoration-line:none;text-decoration-style:solid;text-decoration-color:#000000;letter-spacing:normal;word-spacing:normal;text-transform:none;writing-mode:lr-tb;direction:ltr;text-orientation:mixed;dominant-baseline:auto;baseline-shift:baseline;text-anchor:start;white-space:normal;shape-padding:0;shape-margin:0;inline-size:0;clip-rule:nonzero;display:inline;overflow:visible;visibility:visible;isolation:auto;mix-blend-mode:normal;color-interpolation:sRGB;color-interpolation-filters:linearRGB;solid-color:#000000;solid-opacity:1;vector-effect:none;fill:#f5f6e8;fill-opacity:1;fill-rule:nonzero;stroke:none;stroke-width:0.529167;stroke-linecap:round;stroke-linejoin:round;stroke-miterlimit:4;stroke-dasharray:none;stroke-dashoffset:0;stroke-opacity:1;color-rendering:auto;image-rendering:auto;shape-rendering:auto;text-rendering:auto;enable-background:accumulate;stop-color:#000000"
         sodipodi:nodetypes="sssssssss" />
      <path
         style="color:#000000;font-style:normal;font-variant:normal;font-weight:normal;font-stretch:normal;font-size:medium;line-height:normal;font-family:sans-serif;font-variant-ligatures:normal;font-variant-position:normal;font-variant-caps:normal;font-variant-numeric:normal;font-variant-alternates:normal;font-variant-east-asian:normal;font-feature-settings:normal;font-variation-settings:normal;text-indent:0;text-align:start;text-decoration:none;text-decoration-line:none;text-decoration-style:solid;text-decoration-color:#000000;letter-spacing:normal;word-spacing:normal;text-transform:none;writing-mode:lr-tb;direction:ltr;text-orientation:mixed;dominant-baseline:auto;baseline-shift:baseline;text-anchor:start;white-space:normal;shape-padding:0;shape-margin:0;inline-size:0;clip-rule:nonzero;display:inline;overflow:visible;visibility:visible;isolation:auto;mix-blend-mode:normal;color-interpolation:sRGB;color-interpolation-filters:linearRGB;solid-color:#000000;solid-opacity:1;vector-effect:none;fill:#aabfd0;fill-opacity:1;fill-rule:nonzero;stroke:none;stroke-width:0.529167;stroke-linecap:round;stroke-linejoin:round;stroke-miterlimit:4;stroke-dasharray:none;stroke-dashoffset:0;stroke-opacity:1;color-rendering:auto;image-rendering:auto;shape-rendering:auto;text-rendering:auto;enable-background:accumulate;stop-color:#000000"
         d="m -28.386719,283.77148 c -0.435239,0 -0.792964,0.35773 -0.792969,0.79297 -2e-6,0.43525 0.357725,0.79297 0.792969,0.79297 h 12.701172 c 0.43524,0 0.792965,-0.35773 0.792969,-0.79297 3e-6,-0.43524 -0.357725,-0.79297 -0.792969,-0.79297 z"
         id="path1468" />
      <path
         id="path1502"
         d="m -23.623047,286.15234 c -0.435238,0 -0.794917,0.35773 -0.794922,0.79297 -1e-6,0.43524 0.359677,0.79492 0.794922,0.79492 h 3.173828 c 0.435237,0 0.794918,-0.35968 0.794922,-0.79492 2e-6,-0.43524 -0.359676,-0.79297 -0.794922,-0.79297 z"
         style="color:#000000;font-style:normal;font-variant:normal;font-weight:normal;font-stretch:normal;font-size:medium;line-height:normal;font-family:sans-serif;font-variant-ligatures:normal;font-variant-position:normal;font-variant-caps:normal;font-variant-numeric:normal;font-variant-alternates:normal;font-variant-east-asian:normal;font-feature-settings:normal;font-variation-settings:normal;text-indent:0;text-align:start;text-decoration:none;text-decoration-line:none;text-decoration-style:solid;text-decoration-color:#000000;letter-spacing:normal;word-spacing:normal;text-transform:none;writing-mode:lr-tb;direction:ltr;text-orientation:mixed;dominant-baseline:auto;baseline-shift:baseline;text-anchor:start;white-space:normal;shape-padding:0;shape-margin:0;inline-size:0;clip-rule:nonzero;display:inline;overflow:visible;visibility:visible;isolation:auto;mix-blend-mode:normal;color-interpolation:sRGB;color-interpolation-filters:linearRGB;solid-color:#000000;solid-opacity:1;vector-effect:none;fill:#aabfd0;fill-opacity:1;fill-rule:nonzero;stroke:none;stroke-width:0.529167;stroke-linecap:round;stroke-linejoin:round;stroke-miterlimit:4;stroke-dasharray:none;stroke-dashoffset:0;stroke-opacity:1;color-rendering:auto;image-rendering:auto;shape-rendering:auto;text-rendering:auto;enable-background:accumulate;stop-color:#000000" />
      <path
         d="m -29.312423,281.84438 c -0.508301,6.1e-4 -0.804991,0.22751 -0.804991,0.73582 v 0.13229 h 14.299257 c 0.508304,0 0.926042,0.41773 0.926042,0.92605 v 4.95288 h 0.132291 c 0.508305,0 0.772066,-0.21228 0.770405,-0.72058 l -0.01729,-5.29064 c -0.0017,-0.50831 -0.244807,-0.75371 -0.753112,-0.75311 z"
         style="color:#000000;font-style:normal;font-variant:normal;font-weight:normal;font-stretch:normal;font-size:medium;line-height:normal;font-family:sans-serif;font-variant-ligatures:normal;font-variant-position:normal;font-variant-caps:normal;font-variant-numeric:normal;font-variant-alternates:normal;font-variant-east-asian:normal;font-feature-settings:normal;font-variation-settings:normal;text-indent:0;text-align:start;text-decoration:none;text-decoration-line:none;text-decoration-style:solid;text-decoration-color:#000000;letter-spacing:normal;word-spacing:normal;text-transform:none;writing-mode:lr-tb;direction:ltr;text-orientation:mixed;dominant-baseline:auto;baseline-shift:baseline;text-anchor:start;white-space:normal;shape-padding:0;shape-margin:0;inline-size:0;clip-rule:nonzero;display:inline;overflow:visible;visibility:visible;isolation:auto;mix-blend-mode:normal;color-interpolation:sRGB;color-interpolation-filters:linearRGB;solid-color:#000000;solid-opacity:1;vector-effect:none;fill:#e0e0d4;fill-opacity:1;fill-rule:nonzero;stroke:none;stroke-width:0.529167;stroke-linecap:round;stroke-linejoin:round;stroke-miterlimit:4;stroke-dasharray:none;stroke-dashoffset:0;stroke-opacity:1;color-rendering:auto;image-rendering:auto;shape-rendering:auto;text-rendering:auto;enable-background:accumulate;stop-color:#000000"
         id="path386"
         sodipodi:nodetypes="sscsscsssss" />
      <path
         d="m -28.386898,283.77134 c -0.356179,0 -0.65672,0.24133 -0.75551,0.56689 0.07234,-0.022 0.147188,-0.0377 0.226343,-0.0377 h 12.70155 c 0.435244,0 0.79272,0.35799 0.792717,0.79323 -10e-7,0.0791 -0.01528,0.15408 -0.03721,0.22635 0.325436,-0.0989 0.56637,-0.39943 0.566374,-0.75551 3e-6,-0.43524 -0.357473,-0.79324 -0.792717,-0.79324 z"
         style="color:#000000;font-style:normal;font-variant:normal;font-weight:normal;font-stretch:normal;font-size:medium;line-height:normal;font-family:sans-serif;font-variant-ligatures:normal;font-variant-position:normal;font-variant-caps:normal;font-variant-numeric:normal;font-variant-alternates:normal;font-variant-east-asian:normal;font-feature-settings:normal;font-variation-settings:normal;text-indent:0;text-align:start;text-decoration:none;text-decoration-line:none;text-decoration-style:solid;text-decoration-color:#000000;letter-spacing:normal;word-spacing:normal;text-transform:none;writing-mode:lr-tb;direction:ltr;text-orientation:mixed;dominant-baseline:auto;baseline-shift:baseline;text-anchor:start;white-space:normal;shape-padding:0;shape-margin:0;inline-size:0;clip-rule:nonzero;display:inline;overflow:visible;visibility:visible;isolation:auto;mix-blend-mode:normal;color-interpolation:sRGB;color-interpolation-filters:linearRGB;solid-color:#000000;solid-opacity:1;vector-effect:none;fill:#7d8e9e;fill-opacity:1;fill-rule:nonzero;stroke:none;stroke-width:0.529167;stroke-linecap:round;stroke-linejoin:round;stroke-miterlimit:4;stroke-dasharray:none;stroke-dashoffset:0;stroke-opacity:1;color-rendering:auto;image-rendering:auto;shape-rendering:auto;text-rendering:auto;enable-background:accumulate;stop-color:#000000"
         id="path1227" />
      <path
         d="m -23.622847,286.15259 c -0.356404,0 -0.659029,0.24101 -0.758095,0.56689 0.07305,-0.0224 0.14903,-0.0377 0.228928,-0.0377 h 3.17345 c 0.435245,0 0.795301,0.35748 0.795301,0.79272 -3e-6,0.0795 -0.01594,0.15512 -0.03824,0.22789 0.32539,-0.0997 0.567402,-0.40135 0.567407,-0.75706 0,-0.43524 -0.360055,-0.79272 -0.7953,-0.79272 z"
         style="color:#000000;font-style:normal;font-variant:normal;font-weight:normal;font-stretch:normal;font-size:medium;line-height:normal;font-family:sans-serif;font-variant-ligatures:normal;font-variant-position:normal;font-variant-caps:normal;font-variant-numeric:normal;font-variant-alternates:normal;font-variant-east-asian:normal;font-feature-settings:normal;font-variation-settings:normal;text-indent:0;text-align:start;text-decoration:none;text-decoration-line:none;text-decoration-style:solid;text-decoration-color:#000000;letter-spacing:normal;word-spacing:normal;text-transform:none;writing-mode:lr-tb;direction:ltr;text-orientation:mixed;dominant-baseline:auto;baseline-shift:baseline;text-anchor:start;white-space:normal;shape-padding:0;shape-margin:0;inline-size:0;clip-rule:nonzero;display:inline;overflow:visible;visibility:visible;isolation:auto;mix-blend-mode:normal;color-interpolation:sRGB;color-interpolation-filters:linearRGB;solid-color:#000000;solid-opacity:1;vector-effect:none;fill:#7d8e9e;fill-opacity:1;fill-rule:nonzero;stroke:none;stroke-width:0.529167;stroke-linecap:round;stroke-linejoin:round;stroke-miterlimit:4;stroke-dasharray:none;stroke-dashoffset:0;stroke-opacity:1;color-rendering:auto;image-rendering:auto;shape-rendering:auto;text-rendering:auto;enable-background:accumulate;stop-color:#000000"
         id="path1234" />
      <path
         sodipodi:nodetypes="sssscsccscsssssssssccssssssssssssssssssssssssssssssssssssssscsccsccssssssscsccscccccsscccccccccccccssccscssscscssscsscssscscssscssccsccssccsccsscssscscssscsscssscscssscs"
         d="m -29.312423,281.65416 c -0.508302,0 -0.926042,0.41773 -0.926042,0.92604 v 5.29063 c 0,0.50831 0.41774,0.92811 0.926042,0.92811 h 0.396359 v 0.26355 c -3e-6,0.43524 0.359537,0.79324 0.794782,0.79324 4.056772,0 8.113545,0 12.170317,0 0.435245,0 0.794784,-0.358 0.794784,-0.79324 v -0.26355 h 0.396358 c 0.508303,0 0.926042,-0.4198 0.926042,-0.92811 v -5.29063 c 0,-0.50831 -0.417739,-0.92604 -0.926042,-0.92604 z m 0,0.52968 h 14.5526 c 0.222324,0 0.396358,0.17403 0.396358,0.39636 v 5.29063 c 0,0.22234 -0.174034,0.39895 -0.396358,0.39895 -4.850867,0 -9.701733,0 -14.5526,0 -0.222324,0 -0.396359,-0.17661 -0.396359,-0.39895 v -5.29063 c 0,-0.22233 0.174035,-0.39636 0.396359,-0.39636 z m 0.39584,0.52917 c -0.145319,5.6e-4 -0.262982,0.11823 -0.263549,0.26355 -5.29e-4,0.14613 0.117425,0.26505 0.263549,0.26562 0.146934,5.8e-4 0.266192,-0.11869 0.265618,-0.26562 -5.29e-4,-0.14613 -0.119491,-0.26412 -0.265618,-0.26355 z m 1.058334,0 c -0.14532,5.6e-4 -0.262983,0.11823 -0.263549,0.26355 -5.29e-4,0.14613 0.117425,0.26505 0.263549,0.26562 0.146933,5.8e-4 0.266192,-0.11869 0.265618,-0.26562 -5.3e-4,-0.14613 -0.119492,-0.26412 -0.265618,-0.26355 z m 12.700001,0 c -0.14532,5.6e-4 -0.262983,0.11823 -0.26355,0.26355 -5.82e-4,0.14613 0.117424,0.26505 0.26355,0.26562 0.146933,5.8e-4 0.266192,-0.11869 0.265617,-0.26562 -5.82e-4,-0.14613 -0.119491,-0.26412 -0.265617,-0.26355 z m -13.228649,1.05833 c -0.43524,0 -0.792713,0.358 -0.792719,0.79324 0,0.43525 0.357474,0.79271 0.792719,0.79271 h 12.701549 c 0.43524,0 0.792713,-0.35747 0.792717,-0.79271 3e-6,-0.43524 -0.357473,-0.79324 -0.792717,-0.79324 z m 0,0.52969 h 12.701549 c 0.14926,0 0.263551,0.11429 0.26355,0.26355 -10e-7,0.14926 -0.114292,0.26561 -0.26355,0.26561 h -12.701549 c -0.14926,0 -0.263552,-0.11635 -0.263552,-0.26561 3e-6,-0.14925 0.114295,-0.26355 0.263552,-0.26355 z m 4.764049,1.85156 c -0.435238,0 -0.795295,0.35748 -0.7953,0.79272 -1e-6,0.43524 0.360055,0.79478 0.7953,0.79478 h 3.17345 c 0.435237,0 0.795296,-0.35954 0.7953,-0.79478 2e-6,-0.43524 -0.360054,-0.79272 -0.7953,-0.79272 z m -5.293216,0.52917 c -0.14532,5.6e-4 -0.262985,0.11823 -0.263552,0.26355 -5.29e-4,0.14613 0.117425,0.26505 0.263552,0.26562 h 3.7052 c 0.146125,-5.9e-4 0.264121,-0.11949 0.263549,-0.26562 -5.55e-4,-0.14532 -0.11823,-0.26298 -0.263549,-0.26355 z m 5.293216,0 h 3.17345 c 0.149259,0 0.265618,0.11429 0.265617,0.26355 -1e-6,0.14926 -0.116358,0.26562 -0.265617,0.26562 h -3.17345 c -0.149259,0 -0.265617,-0.11636 -0.265617,-0.26562 2e-6,-0.14926 0.116357,-0.26355 0.265617,-0.26355 z m 4.761467,0 c -0.14532,5.6e-4 -0.262984,0.11823 -0.26355,0.26355 -5.82e-4,0.14613 0.117424,0.26505 0.26355,0.26562 h 3.7052 c 0.146126,-5.9e-4 0.264122,-0.11949 0.26355,-0.26562 -5.56e-4,-0.14532 -0.118231,-0.26298 -0.26355,-0.26355 z m -9.525516,2.11718 h 2.381249 v 0.5271 h -2.115634 c -0.149257,0 -0.265615,-0.11429 -0.265615,-0.26355 z m 2.910416,0 h 3.175516 v 0.5271 h -3.175516 z m 3.7052,0 h 3.175517 v 0.5271 h -3.175517 z m 3.703133,0 h 2.3828 v 0.26355 c 0,0.14926 -0.116358,0.26355 -0.265617,0.26355 h -2.117183 z m -8.465116,1.58595 c -0.146933,-5.8e-4 -0.266192,0.11869 -0.265617,0.26562 v 3.43958 c 0,0.44151 -0.351206,0.79272 -0.792716,0.79272 -0.44151,0 -0.7953,-0.35121 -0.7953,-0.79272 v -0.52968 c 5.29e-4,-0.14613 -0.117425,-0.26505 -0.263552,-0.26562 -0.146934,-5.8e-4 -0.266189,0.11869 -0.265615,0.26562 v 0.52968 c 0,0.7275 0.596974,1.32189 1.324467,1.32189 0.727493,0 1.321882,-0.59439 1.321882,-1.32189 v -3.43958 c 5.83e-4,-0.14613 -0.117423,-0.26505 -0.263549,-0.26562 z m 1.585949,0 c -0.146125,5.9e-4 -0.264121,0.11949 -0.263549,0.26562 v 2.95693 c 0,0.56451 0.485377,1.01182 1.058333,1.01182 0.572957,0 1.05885,-0.44731 1.05885,-1.01182 v -0.37311 c 5.82e-4,-0.14693 -0.118683,-0.26619 -0.265617,-0.26562 -0.146126,5.9e-4 -0.264121,0.1195 -0.26355,0.26562 v 0.37311 c 0,0.26065 -0.225886,0.48265 -0.529683,0.48265 -0.303795,0 -0.529167,-0.222 -0.529167,-0.48265 v -2.95693 c 5.82e-4,-0.14693 -0.118683,-0.26619 -0.265617,-0.26562 z m 2.117184,0 c -0.146126,5.9e-4 -0.264122,0.11949 -0.26355,0.26562 v 1.48828 c 5.56e-4,0.14532 0.118231,0.26298 0.26355,0.26355 0.146125,5.8e-4 0.265047,-0.11742 0.265617,-0.26355 v -1.48828 c 5.82e-4,-0.14693 -0.118683,-0.26619 -0.265617,-0.26562 z m 1.588017,0 c -0.146934,-5.8e-4 -0.266192,0.11869 -0.265617,0.26562 v 1.48828 c 5.82e-4,0.14613 0.119491,0.26412 0.265617,0.26355 0.145319,-5.5e-4 0.262983,-0.11823 0.263549,-0.26355 v -1.48828 c 5.83e-4,-0.14613 -0.117424,-0.26505 -0.263549,-0.26562 z m 2.117183,0 c -0.146934,-5.8e-4 -0.266192,0.11869 -0.265617,0.26562 v 2.95693 c 0,0.26065 -0.22537,0.48265 -0.529167,0.48265 -0.303797,0 -0.529683,-0.222 -0.529683,-0.48265 v -0.37311 c 5.82e-4,-0.14612 -0.117424,-0.26505 -0.26355,-0.26562 -0.146933,-5.8e-4 -0.266191,0.11869 -0.265617,0.26562 v 0.37311 c 0,0.56451 0.485893,1.01182 1.05885,1.01182 0.572957,0 1.058334,-0.44731 1.058334,-1.01182 v -2.95693 c 5.82e-4,-0.14613 -0.117424,-0.26505 -0.26355,-0.26562 z m 1.58595,0 c -0.146126,5.9e-4 -0.264122,0.11949 -0.26355,0.26562 v 3.43958 c 0,0.7275 0.594391,1.32189 1.321883,1.32189 0.727493,0 1.324467,-0.59439 1.324467,-1.32189 v -0.52968 c 5.82e-4,-0.14693 -0.118683,-0.26619 -0.265617,-0.26562 -0.146126,5.9e-4 -0.264122,0.11949 -0.26355,0.26562 v 0.52968 c 0,0.44151 -0.353789,0.79272 -0.7953,0.79272 -0.44151,0 -0.792717,-0.35121 -0.792717,-0.79272 v -3.43958 c 5.83e-4,-0.14693 -0.118683,-0.26619 -0.265616,-0.26562 z"
         style="color:#000000;font-style:normal;font-variant:normal;font-weight:normal;font-stretch:normal;font-size:medium;line-height:normal;font-family:sans-serif;font-variant-ligatures:normal;font-variant-position:normal;font-variant-caps:normal;font-variant-numeric:normal;font-variant-alternates:normal;font-variant-east-asian:normal;font-feature-settings:normal;font-variation-settings:normal;text-indent:0;text-align:start;text-decoration:none;text-decoration-line:none;text-decoration-style:solid;text-decoration-color:#000000;letter-spacing:normal;word-spacing:normal;text-transform:none;writing-mode:lr-tb;direction:ltr;text-orientation:mixed;dominant-baseline:auto;baseline-shift:baseline;text-anchor:start;white-space:normal;shape-padding:0;shape-margin:0;inline-size:0;clip-rule:nonzero;display:inline;overflow:visible;visibility:visible;opacity:1;isolation:auto;mix-blend-mode:normal;color-interpolation:sRGB;color-interpolation-filters:linearRGB;solid-color:#000000;solid-opacity:1;vector-effect:none;fill:#000000;fill-opacity:1;fill-rule:nonzero;stroke:none;stroke-width:0.529167;stroke-linecap:round;stroke-linejoin:round;stroke-miterlimit:4;stroke-dasharray:none;stroke-dashoffset:0;stroke-opacity:1;color-rendering:auto;image-rendering:auto;shape-rendering:auto;text-rendering:auto;enable-background:accumulate;stop-color:#000000;stop-opacity:1"
         id="path1591" />
    </g>
  </g>
</svg>
