<?xml version="1.0" encoding="UTF-8" standalone="no"?>
<svg
   inkscape:export-ydpi="576"
   inkscape:export-xdpi="576"
   inkscape:export-filename="/media/taufikramadhan/Data/Tr Design Studio/Project Design/TR Creative Design/Icon Design/Project Hiring/Icon Icons/008 - Weather And Season/Send/4 - Filled Line/28 - Cold Wave.png"
   width="64pt"
   height="64pt"
   viewBox="0 0 22.577778 22.577778"
   version="1.1"
   id="svg831"
   inkscape:version="1.1.1 (1:1.1+202109281943+c3084ef5ed)"
   sodipodi:docname="28 - Cold Wave.svg"
   xmlns:inkscape="http://www.inkscape.org/namespaces/inkscape"
   xmlns:sodipodi="http://sodipodi.sourceforge.net/DTD/sodipodi-0.dtd"
   xmlns="http://www.w3.org/2000/svg"
   xmlns:svg="http://www.w3.org/2000/svg"
   xmlns:rdf="http://www.w3.org/1999/02/22-rdf-syntax-ns#"
   xmlns:cc="http://creativecommons.org/ns#"
   xmlns:dc="http://purl.org/dc/elements/1.1/">
  <defs
     id="defs825">
    <pattern
       id="EMFhbasepattern"
       patternUnits="userSpaceOnUse"
       width="6"
       height="6"
       x="0"
       y="0" />
    <pattern
       id="EMFhbasepattern-9"
       patternUnits="userSpaceOnUse"
       width="6"
       height="6"
       x="0"
       y="0" />
    <pattern
       id="EMFhbasepattern-0"
       patternUnits="userSpaceOnUse"
       width="6"
       height="6"
       x="0"
       y="0" />
    <pattern
       id="EMFhbasepattern-7"
       patternUnits="userSpaceOnUse"
       width="6"
       height="6"
       x="0"
       y="0" />
    <pattern
       id="EMFhbasepattern-2"
       patternUnits="userSpaceOnUse"
       width="6"
       height="6"
       x="0"
       y="0" />
    <pattern
       id="EMFhbasepattern-98"
       patternUnits="userSpaceOnUse"
       width="6"
       height="6"
       x="0"
       y="0" />
    <pattern
       id="EMFhbasepattern-6"
       patternUnits="userSpaceOnUse"
       width="6"
       height="6"
       x="0"
       y="0" />
    <pattern
       id="EMFhbasepattern-01"
       patternUnits="userSpaceOnUse"
       width="6"
       height="6"
       x="0"
       y="0" />
    <pattern
       id="EMFhbasepattern-07"
       patternUnits="userSpaceOnUse"
       width="6"
       height="6"
       x="0"
       y="0" />
    <pattern
       id="EMFhbasepattern-8"
       patternUnits="userSpaceOnUse"
       width="6"
       height="6"
       x="0"
       y="0" />
    <pattern
       id="EMFhbasepattern-4"
       patternUnits="userSpaceOnUse"
       width="6"
       height="6"
       x="0"
       y="0" />
    <pattern
       id="EMFhbasepattern-40"
       patternUnits="userSpaceOnUse"
       width="6"
       height="6"
       x="0"
       y="0" />
    <pattern
       id="EMFhbasepattern-08"
       patternUnits="userSpaceOnUse"
       width="6"
       height="6"
       x="0"
       y="0" />
    <pattern
       id="EMFhbasepattern-04"
       patternUnits="userSpaceOnUse"
       width="6"
       height="6"
       x="0"
       y="0" />
    <pattern
       id="EMFhbasepattern-014"
       patternUnits="userSpaceOnUse"
       width="6"
       height="6"
       x="0"
       y="0" />
    <pattern
       id="EMFhbasepattern-27"
       patternUnits="userSpaceOnUse"
       width="6"
       height="6"
       x="0"
       y="0" />
    <pattern
       id="EMFhbasepattern-09"
       patternUnits="userSpaceOnUse"
       width="6"
       height="6"
       x="0"
       y="0" />
    <pattern
       id="EMFhbasepattern-5"
       patternUnits="userSpaceOnUse"
       width="6"
       height="6"
       x="0"
       y="0" />
    <pattern
       id="EMFhbasepattern-018"
       patternUnits="userSpaceOnUse"
       width="6"
       height="6"
       x="0"
       y="0" />
  </defs>
  <sodipodi:namedview
     id="base"
     pagecolor="#ffffff"
     bordercolor="#666666"
     borderopacity="1.0"
     inkscape:pageopacity="0.0"
     inkscape:pageshadow="2"
     inkscape:zoom="6.28125"
     inkscape:cx="42.666667"
     inkscape:cy="42.666667"
     inkscape:document-units="pt"
     inkscape:current-layer="layer1"
     showgrid="false"
     units="pt"
     inkscape:window-width="1366"
     inkscape:window-height="705"
     inkscape:window-x="0"
     inkscape:window-y="31"
     inkscape:window-maximized="1"
     inkscape:pagecheckerboard="true"
     inkscape:showpageshadow="false"
     inkscape:object-paths="true"
     inkscape:snap-intersection-paths="true"
     inkscape:snap-smooth-nodes="true"
     inkscape:snap-midpoints="true"
     showguides="false"
     inkscape:snap-bbox="true"
     inkscape:bbox-nodes="true"
     inkscape:snap-nodes="false"
     inkscape:snap-global="true"
     inkscape:document-rotation="0">
    <inkscape:grid
       type="xygrid"
       id="grid1378" />
    <sodipodi:guide
       position="0.97013831,21.607643"
       orientation="78.000048,0"
       id="guide1380"
       inkscape:locked="false" />
    <sodipodi:guide
       position="0.97013831,0.97013129"
       orientation="0,78.000005"
       id="guide1382"
       inkscape:locked="false" />
    <sodipodi:guide
       position="21.607639,0.97013129"
       orientation="-78.000048,0"
       id="guide1384"
       inkscape:locked="false" />
    <sodipodi:guide
       position="21.607639,21.607643"
       orientation="0,-78.000005"
       id="guide1386"
       inkscape:locked="false" />
  </sodipodi:namedview>
  <metadata
     id="metadata828">
    <rdf:RDF>
      <cc:Work
         rdf:about="">
        <dc:format>image/svg+xml</dc:format>
        <dc:type
           rdf:resource="http://purl.org/dc/dcmitype/StillImage" />
      </cc:Work>
    </rdf:RDF>
  </metadata>
  <g
     inkscape:label="Icon"
     inkscape:groupmode="layer"
     id="layer1"
     transform="translate(0,-274.42223)">
    <g
       id="g4285"
       transform="matrix(1.2187047,0,0,1.2187047,-4.3169986,-61.100314)"
       style="stroke-width:0.820543">
      <g
         id="g641002"
         transform="translate(-26.164341,184.59934)"
         style="stroke-width:0.820543">
        <path
           style="color:#000000;fill:#f5f6e8;fill-opacity:1;stroke-width:0.820543;stroke-linecap:round;stroke-linejoin:round;-inkscape-stroke:none"
           d="m 36.582031,91.507812 c -1.028706,0 -1.865234,0.836653 -1.865234,1.865235 v 8.113283 c -1.142775,0.66953 -1.889033,1.86247 -1.892578,3.19726 -2.9e-5,2.07259 1.685392,3.75782 3.757812,3.75782 2.072422,0 3.75787,-1.68523 3.757813,-3.75782 -2.71e-4,-1.33862 -0.746094,-2.53583 -1.892578,-3.20703 v -8.103513 c 0,-1.028724 -0.836572,-1.865235 -1.865235,-1.865235 z"
           id="path599674" />
        <path
           style="color:#000000;fill:#2bb3cd;stroke-width:0.217102;stroke-linecap:round;stroke-linejoin:round;-inkscape-stroke:none"
           d="m 35.858795,99.967545 v 1.925465 c 0,0.11145 -0.0844,0.19655 -0.195855,0.19688 l -0.274402,5.3e-4 c -0.15158,5.3e-4 -0.275617,0.029 -0.415478,0.11938 -0.83702,0.54077 -1.37685,1.45393 -1.380279,2.47271 -1e-6,3.3e-4 -1e-6,6.7e-4 0,0.001 -2.1e-5,1.65599 1.333985,2.99103 2.989483,2.99103 1.655561,0 2.991075,-1.33534 2.991032,-2.99103 -2.06e-4,-1.02096 -0.539279,-1.93787 -1.378212,-2.48099 -0.140472,-0.0909 -0.264586,-0.11931 -0.417028,-0.11885 l -0.277503,5.3e-4 c -0.110411,3.1e-4 -0.194302,-0.0834 -0.194302,-0.19383 v -1.922885 c 0,-0.39624 -0.327054,-0.723893 -0.723503,-0.723958 -0.396449,-6.5e-5 -0.723953,0.32742 -0.723953,0.724018 z"
           id="path599680"
           sodipodi:nodetypes="sscccscsccccsscs" />
        <path
           id="path632249"
           style="color:#000000;fill:#2276bc;fill-opacity:1;stroke-width:0.217102;stroke-linecap:round;stroke-linejoin:round;-inkscape-stroke:none"
           d="m 36.582781,99.243557 c -0.336728,-5.5e-5 -0.62346,0.236165 -0.702283,0.550355 0.05555,-0.01389 0.113578,-0.02119 0.173116,-0.02119 0.396449,7.1e-5 0.72347,0.327748 0.72347,0.723988 v 1.92288 c 0,0.11043 0.08389,0.1941 0.194304,0.19379 l 0.277501,-5.3e-4 c 0.152443,-5.3e-4 0.276559,0.028 0.417031,0.11885 0.838933,0.54313 1.378003,1.46003 1.37821,2.48099 1.8e-5,0.69263 -0.233752,1.32884 -0.626835,1.83503 0.703865,-0.54654 1.156025,-1.40113 1.156001,-2.36419 -2.06e-4,-1.02097 -0.539276,-1.93787 -1.378209,-2.48099 -0.140473,-0.0909 -0.264589,-0.11932 -0.417031,-0.11886 l -0.2775,5.3e-4 c -0.110414,3.1e-4 -0.194305,-0.0834 -0.194305,-0.19378 v -1.922882 c 0,-0.39624 -0.327021,-0.723922 -0.72347,-0.723988 z"
           sodipodi:nodetypes="sccsscccccccccsss" />
        <path
           id="path601351"
           style="color:#000000;fill:#dadcc6;fill-opacity:1;stroke-width:0.820543;stroke-linecap:round;stroke-linejoin:round;-inkscape-stroke:none"
           d="m 36.582263,91.50752 c -0.08983,0 -0.178115,0.0068 -0.264583,0.01913 0.903687,0.128894 1.600419,0.907542 1.600419,1.8464 v 8.10338 c 1.146485,0.6712 1.89212,1.86842 1.89239,3.20704 5.6e-5,1.98359 -1.543992,3.61083 -3.493325,3.74706 0.08763,0.006 0.175934,0.0108 0.265099,0.0108 2.072423,0 3.757451,-1.68532 3.757393,-3.75791 -2.65e-4,-1.33862 -0.745905,-2.53584 -1.89239,-3.20704 v -8.103383 c 0,-1.028724 -0.83634,-1.865519 -1.865003,-1.865519 z" />
      </g>
      <path
         id="path34749-1"
         style="color:#000000;fill:#000000;stroke-width:0.820543;stroke-linecap:round;stroke-linejoin:round;-inkscape-stroke:none"
         d="m 10.417923,276.10694 c -1.0287057,0 -1.8655193,0.83693 -1.8655193,1.86551 v 8.1132 c -1.1427751,0.66953 -1.8888446,1.86243 -1.89239,3.19723 -2.91e-5,2.07259 1.6854885,3.75791 3.7579093,3.75791 2.072423,0 3.757451,-1.68532 3.757393,-3.75791 -2.65e-4,-1.33862 -0.745906,-2.53584 -1.89239,-3.20704 v -8.10339 c 0,-1.02872 -0.83634,-1.86551 -1.865003,-1.86551 z m 0,0.52968 c 0.744892,0 1.337902,0.59132 1.337902,1.33583 v 1.83762 h -0.879014 c -0.145415,5.3e-4 -0.263052,0.11865 -0.263552,0.26407 -5.29e-4,0.14617 0.117375,0.26511 0.263552,0.26561 h 0.879014 v 0.59376 h -0.416512 c -0.146174,-5.2e-4 -0.265115,0.11738 -0.265615,0.26355 -5.29e-4,0.14694 0.118676,0.2662 0.265615,0.26562 h 0.416512 v 0.59376 h -0.879014 c -0.145415,5.3e-4 -0.263052,0.11814 -0.263552,0.26355 -5.29e-4,0.14618 0.117375,0.26512 0.263552,0.26562 h 0.879014 v 0.59376 h -0.416512 c -0.146174,-5.3e-4 -0.265113,0.11737 -0.265615,0.26355 -5.29e-4,0.14694 0.118676,0.2662 0.265615,0.26562 h 0.416512 v 0.59376 h -0.66404 c -0.106858,-0.26752 -0.370377,-0.45889 -0.673862,-0.45889 -0.396389,0 -0.7229532,0.32636 -0.7229532,0.72296 v 1.49758 c 2.646e-4,0.14552 0.118028,0.2635 0.2635488,0.26407 0.1463274,5.3e-4 0.2653344,-0.11774 0.2656174,-0.26407 v -1.49758 c 0,-0.11247 0.08138,-0.19379 0.193787,-0.19379 0.112405,0 0.195336,0.081 0.195336,0.19379 v 1.49758 c 2.65e-4,0.14552 0.118031,0.2635 0.263552,0.26407 h 0.929142 c 0.02331,0.0356 0.05487,0.065 0.09198,0.0858 1.074465,0.55417 1.750036,1.66 1.750282,2.86908 4.8e-5,1.78661 -1.443823,3.22874 -3.230295,3.22874 -1.7864697,0 -3.2287691,-1.44212 -3.2287426,-3.22874 0.0032,-1.20668 0.6774709,-2.30892 1.7497637,-2.86133 0.087405,-0.0454 0.1423564,-0.1356 0.1426263,-0.23409 v -8.21501 c 0,-0.74465 0.5914019,-1.33583 1.3363526,-1.33583 z m 4.88859,1.66605 c -0.208233,0.20748 -0.337998,0.4965 -0.337963,0.81235 5.29e-4,0.14618 0.119441,0.26413 0.265618,0.26355 0.145412,-5.3e-4 0.263048,-0.11813 0.263548,-0.26355 -1.8e-5,-0.17257 0.06935,-0.32556 0.181901,-0.4377 3e-6,-7.9e-4 3e-6,-0.001 0,-0.002 0.11275,-0.11269 0.265796,-0.18138 0.439251,-0.18138 0.346882,0 0.623274,0.27607 0.623218,0.62115 -3.7e-5,0.34548 -0.276246,0.61908 -0.623218,0.61908 h -2.818434 c -0.145413,5.3e-4 -0.263049,0.11814 -0.263549,0.26355 -5.29e-4,0.14618 0.117372,0.26512 0.263549,0.26562 h 2.818434 c 0.632039,0 1.152313,-0.51636 1.152385,-1.14825 10e-5,-0.63176 -0.5201,-1.15032 -1.152385,-1.15032 -0.304586,0 -0.614733,0.15142 -0.812355,0.33802 z m 2.415873,1.43143 c -0.146127,-5.3e-4 -0.265046,0.11743 -0.265615,0.26355 -5.29e-4,0.14694 0.118684,0.26619 0.265615,0.26562 h 0.910024 c 0.146124,-5.3e-4 0.26412,-0.11949 0.263549,-0.26562 -5.3e-4,-0.14532 -0.118229,-0.26298 -0.263549,-0.26355 z m -3.019454,1.18546 c -0.14532,5.3e-4 -0.262983,0.11823 -0.263549,0.26355 -5.29e-4,0.14613 0.117425,0.26505 0.263549,0.26562 h 0.769464 c 0.146124,-5.3e-4 0.26412,-0.11949 0.263549,-0.26562 -5.3e-4,-0.14532 -0.11823,-0.26298 -0.263549,-0.26355 z m 1.791107,0 c -0.146126,-5.3e-4 -0.265049,0.11743 -0.265618,0.26355 -5.29e-4,0.14694 0.118685,0.26619 0.265618,0.26562 h 1.304312 c 0.346747,0 0.623162,0.27446 0.623218,0.6196 5.8e-5,0.34542 -0.276334,0.62063 -0.623218,0.62063 -0.173453,0 -0.326499,-0.0687 -0.439249,-0.18138 -0.112839,-0.11262 -0.181919,-0.26636 -0.181901,-0.43925 -2.64e-4,-0.14552 -0.11803,-0.2635 -0.263551,-0.26407 -0.146328,-5.3e-4 -0.265332,0.11774 -0.265615,0.26407 -3.5e-5,0.31606 0.130027,0.60483 0.337963,0.81235 0.208084,0.20798 0.496276,0.33796 0.812353,0.33797 0.632285,0 1.152488,-0.51837 1.152384,-1.15032 -1e-4,-0.6317 -0.520173,-1.14877 -1.152384,-1.14877 z m -2.736268,1.7694 c -0.145722,2.7e-4 -0.263784,0.11835 -0.264067,0.26407 -5.29e-4,0.14633 0.11774,0.26533 0.264067,0.26562 h 1.373042 c 0.146934,5.3e-4 0.266195,-0.11869 0.265618,-0.26562 -2.64e-4,-0.14633 -0.11929,-0.26464 -0.265618,-0.26407 z m 2.361097,0.74621 c -0.316076,0 -0.604271,0.12792 -0.812355,0.3359 -0.208233,0.20748 -0.337998,0.49701 -0.337963,0.81287 -5.29e-4,0.14693 0.118684,0.26619 0.265618,0.26561 0.146126,-5.2e-4 0.26412,-0.11949 0.263548,-0.26561 -1.8e-5,-0.17257 0.06935,-0.32556 0.181901,-0.4377 0.11275,-0.11269 0.265796,-0.1819 0.439251,-0.1819 0.346882,0 0.623274,0.27452 0.623218,0.6196 -3.7e-5,0.34548 -0.276246,0.61908 -0.623218,0.61908 h -2.818434 c -0.146124,5.3e-4 -0.264121,0.11949 -0.263549,0.26562 5.29e-4,0.14532 0.118229,0.26298 0.263549,0.26355 h 2.818434 c 0.632037,0 1.152313,-0.51636 1.152385,-1.14825 10e-5,-0.63176 -0.5201,-1.14877 -1.152385,-1.14877 z m -4.976442,1.39681 h 0.613399 v 0.96842 h -0.613399 z m 6.57996,0.37104 c -0.146931,-5.3e-4 -0.266189,0.11869 -0.265615,0.26562 5.29e-4,0.14612 0.119488,0.26412 0.265615,0.26355 h 0.910024 c 0.14532,-5.3e-4 0.262982,-0.11823 0.263549,-0.26355 5.29e-4,-0.14613 -0.117425,-0.26505 -0.263549,-0.26562 z m -3.019454,1.18546 c -0.146127,5.3e-4 -0.26412,0.11949 -0.263549,0.26562 5.29e-4,0.14531 0.118232,0.26298 0.263549,0.26354 h 0.769464 c 0.145317,-5.3e-4 0.262982,-0.11823 0.263549,-0.26354 5.29e-4,-0.14613 -0.117423,-0.26505 -0.263549,-0.26562 z m 1.791107,0 c -0.146933,-5.3e-4 -0.266194,0.11868 -0.265618,0.26562 5.3e-4,0.14612 0.119492,0.26412 0.265618,0.26354 h 1.304312 c 0.346747,0 0.623162,0.27601 0.623218,0.62116 5.8e-5,0.34543 -0.276334,0.61908 -0.623218,0.61908 -0.173459,0 -0.326502,-0.0686 -0.439249,-0.18138 -0.112836,-0.11262 -0.181919,-0.2648 -0.181901,-0.4377 5.3e-4,-0.14613 -0.117424,-0.26505 -0.263551,-0.26562 -0.146934,-5.3e-4 -0.266192,0.11868 -0.265615,0.26562 -3.5e-5,0.31607 0.130024,0.60483 0.337963,0.81235 0.208087,0.20799 0.496279,0.3359 0.812353,0.3359 0.632285,0 1.152488,-0.51629 1.152384,-1.14825 -1e-4,-0.63169 -0.520173,-1.15032 -1.152384,-1.15032 z m -6.5355204,0.75603 c -0.070242,1.4e-4 -0.137541,0.0282 -0.1870683,0.078 -0.1026108,0.1032 -0.1026108,0.2699 0,0.3731 l 0.3824047,0.38241 v 0.9157 C 9.889211,288.7409 9.6246965,288.58814 9.3601052,288.43538 l -0.1395254,-0.52141 c -0.037592,-0.14159 -0.1830731,-0.22568 -0.3245273,-0.18759 -0.1413299,0.0376 -0.225351,0.18273 -0.187587,0.32401 l 0.099737,0.37104 -0.3710385,0.0997 c -0.1413298,0.0376 -0.2253483,0.18273 -0.1875843,0.32402 0.037592,0.14158 0.1830758,0.22567 0.3245274,0.18758 l 0.5203829,-0.1395 c 0.2648426,0.15289 0.5295847,0.30561 0.7942659,0.45837 -0.2638954,0.15258 -0.5276215,0.30538 -0.7916836,0.45786 l -0.5229648,-0.14005 c -0.1414542,-0.0381 -0.2869354,0.046 -0.3245274,0.18759 -0.038095,0.14145 0.045998,0.28694 0.1875843,0.32453 l 0.3710385,0.0992 -0.099737,0.37155 c -0.037764,0.14129 0.046257,0.28641 0.187587,0.32401 0.1414542,0.0381 0.2869353,-0.046 0.3245273,-0.18758 l 0.1395254,-0.52142 c 0.2645304,-0.15268 0.529172,-0.30531 0.7937494,-0.45785 v 0.91519 l -0.3824043,0.3824 c -0.1039892,0.10344 -0.1039892,0.27174 0,0.37518 0.1033806,0.10364 0.2712743,0.10364 0.3746553,0 l 0.271817,-0.27337 0.271301,0.27337 c 0.103439,0.10398 0.271732,0.10398 0.375171,0 0.103989,-0.10344 0.103989,-0.27174 0,-0.37518 L 10.68354,290.7267 v -0.91623 c 0.263822,0.15227 0.52768,0.30442 0.791684,0.45682 l 0.139525,0.52142 c 0.03759,0.14158 0.183074,0.22568 0.324528,0.18758 0.14133,-0.0376 0.225351,-0.18272 0.187587,-0.32401 l -0.09974,-0.37155 0.371039,-0.0992 c 0.141586,-0.0376 0.225679,-0.18308 0.187584,-0.32453 -0.03759,-0.14159 -0.183073,-0.22568 -0.324527,-0.18759 l -0.521933,0.14005 c -0.263909,-0.15237 -0.527709,-0.30487 -0.791684,-0.45734 0.264901,-0.15273 0.529439,-0.30551 0.794269,-0.45837 l 0.519348,0.13901 c 0.141451,0.0381 0.286935,-0.046 0.324527,-0.18758 0.03776,-0.14129 -0.04625,-0.28642 -0.187584,-0.32402 l -0.371039,-0.0997 0.09974,-0.37104 c 0.03776,-0.14128 -0.04626,-0.28641 -0.187587,-0.32401 -0.141454,-0.0381 -0.286936,0.046 -0.324528,0.18759 l -0.139525,0.52141 c -0.264001,0.15245 -0.527857,0.3048 -0.791684,0.45734 v -0.91674 l 0.380855,-0.38034 c 0.102611,-0.1032 0.102611,-0.2699 0,-0.3731 -0.103439,-0.10399 -0.271732,-0.10399 -0.375171,0 l -0.271301,0.2713 -0.271817,-0.2713 c -0.04965,-0.0499 -0.117166,-0.078 -0.187587,-0.078 z"
         sodipodi:nodetypes="ssccsccssssccccccccccccccccccccccsscscssscccccscccssccccccssscccsccccsccscccsccscccscsssccsccsssccccccccsccsccssscscscsccccccsccscccsccscccscsssccsccsssccscccccccccccccccccccccccccccccccccccccccccccccccccccccccccccc" />
    </g>
  </g>
</svg>
