<?xml version="1.0" encoding="UTF-8" standalone="no"?>
<svg
   xmlns:dc="http://purl.org/dc/elements/1.1/"
   xmlns:cc="http://creativecommons.org/ns#"
   xmlns:rdf="http://www.w3.org/1999/02/22-rdf-syntax-ns#"
   xmlns:svg="http://www.w3.org/2000/svg"
   xmlns="http://www.w3.org/2000/svg"
   xmlns:sodipodi="http://sodipodi.sourceforge.net/DTD/sodipodi-0.dtd"
   xmlns:inkscape="http://www.inkscape.org/namespaces/inkscape"
   inkscape:export-ydpi="576"
   inkscape:export-xdpi="576"
   inkscape:export-filename="C:\Users\RainBoyz\Desktop\DONE\Filedline [Done!]\7 - Temperature.png"
   sodipodi:docname="Template Export.svg"
   inkscape:version="1.0 (4035a4fb49, 2020-05-01)"
   id="svg831"
   version="1.1"
   viewBox="0 0 22.577778 22.577778"
   height="64pt"
   width="64pt">
  <defs
     id="defs825">
    <pattern
       y="0"
       x="0"
       height="6"
       width="6"
       patternUnits="userSpaceOnUse"
       id="EMFhbasepattern" />
    <pattern
       y="0"
       x="0"
       height="6"
       width="6"
       patternUnits="userSpaceOnUse"
       id="EMFhbasepattern-9" />
    <pattern
       y="0"
       x="0"
       height="6"
       width="6"
       patternUnits="userSpaceOnUse"
       id="EMFhbasepattern-0" />
    <pattern
       y="0"
       x="0"
       height="6"
       width="6"
       patternUnits="userSpaceOnUse"
       id="EMFhbasepattern-7" />
    <pattern
       y="0"
       x="0"
       height="6"
       width="6"
       patternUnits="userSpaceOnUse"
       id="EMFhbasepattern-2" />
    <pattern
       y="0"
       x="0"
       height="6"
       width="6"
       patternUnits="userSpaceOnUse"
       id="EMFhbasepattern-98" />
    <pattern
       y="0"
       x="0"
       height="6"
       width="6"
       patternUnits="userSpaceOnUse"
       id="EMFhbasepattern-6" />
    <pattern
       y="0"
       x="0"
       height="6"
       width="6"
       patternUnits="userSpaceOnUse"
       id="EMFhbasepattern-01" />
    <pattern
       y="0"
       x="0"
       height="6"
       width="6"
       patternUnits="userSpaceOnUse"
       id="EMFhbasepattern-07" />
    <pattern
       y="0"
       x="0"
       height="6"
       width="6"
       patternUnits="userSpaceOnUse"
       id="EMFhbasepattern-8" />
    <pattern
       y="0"
       x="0"
       height="6"
       width="6"
       patternUnits="userSpaceOnUse"
       id="EMFhbasepattern-4" />
    <pattern
       y="0"
       x="0"
       height="6"
       width="6"
       patternUnits="userSpaceOnUse"
       id="EMFhbasepattern-40" />
    <pattern
       y="0"
       x="0"
       height="6"
       width="6"
       patternUnits="userSpaceOnUse"
       id="EMFhbasepattern-08" />
    <pattern
       y="0"
       x="0"
       height="6"
       width="6"
       patternUnits="userSpaceOnUse"
       id="EMFhbasepattern-04" />
    <pattern
       y="0"
       x="0"
       height="6"
       width="6"
       patternUnits="userSpaceOnUse"
       id="EMFhbasepattern-014" />
    <pattern
       y="0"
       x="0"
       height="6"
       width="6"
       patternUnits="userSpaceOnUse"
       id="EMFhbasepattern-27" />
    <pattern
       y="0"
       x="0"
       height="6"
       width="6"
       patternUnits="userSpaceOnUse"
       id="EMFhbasepattern-09" />
    <pattern
       y="0"
       x="0"
       height="6"
       width="6"
       patternUnits="userSpaceOnUse"
       id="EMFhbasepattern-5" />
    <pattern
       y="0"
       x="0"
       height="6"
       width="6"
       patternUnits="userSpaceOnUse"
       id="EMFhbasepattern-018" />
  </defs>
  <sodipodi:namedview
     inkscape:document-rotation="0"
     inkscape:snap-global="true"
     inkscape:snap-nodes="false"
     inkscape:bbox-nodes="true"
     inkscape:snap-bbox="true"
     showguides="true"
     inkscape:snap-midpoints="true"
     inkscape:snap-smooth-nodes="true"
     inkscape:snap-intersection-paths="true"
     inkscape:object-paths="true"
     inkscape:showpageshadow="false"
     inkscape:pagecheckerboard="true"
     inkscape:window-maximized="1"
     inkscape:window-y="-8"
     inkscape:window-x="-8"
     inkscape:window-height="715"
     inkscape:window-width="1366"
     units="pt"
     showgrid="false"
     inkscape:current-layer="g724"
     inkscape:document-units="pt"
     inkscape:cy="42.778201"
     inkscape:cx="-4.2778197"
     inkscape:zoom="4.4415145"
     inkscape:pageshadow="2"
     inkscape:pageopacity="0.0"
     borderopacity="1.0"
     bordercolor="#666666"
     pagecolor="#ffffff"
     id="base">
    <inkscape:grid
       id="grid1378"
       type="xygrid" />
    <sodipodi:guide
       inkscape:locked="false"
       id="guide1380"
       orientation="78.000048,0"
       position="0.97013831,21.607643" />
    <sodipodi:guide
       inkscape:locked="false"
       id="guide1382"
       orientation="0,78.000005"
       position="0.97013831,0.97013129" />
    <sodipodi:guide
       inkscape:locked="false"
       id="guide1384"
       orientation="-78.000048,0"
       position="21.607639,0.97013129" />
    <sodipodi:guide
       inkscape:locked="false"
       id="guide1386"
       orientation="0,-78.000005"
       position="21.607639,21.607643" />
  </sodipodi:namedview>
  <metadata
     id="metadata828">
    <rdf:RDF>
      <cc:Work
         rdf:about="">
        <dc:format>image/svg+xml</dc:format>
        <dc:type
           rdf:resource="http://purl.org/dc/dcmitype/StillImage" />
        <dc:title></dc:title>
      </cc:Work>
    </rdf:RDF>
  </metadata>
  <g
     transform="translate(0,-274.42223)"
     id="layer1"
     inkscape:groupmode="layer"
     inkscape:label="Icon">
    <g
       transform="matrix(1.2580549,0,0,1.2580549,77.385914,-38.905126)"
       style="display:inline"
       id="g724">
      <g
         transform="matrix(0.9999934,0,0,0.9999934,-2.395293e-4,-30.502061)"
         id="g1787">
        <path
           id="path1633"
           d="m -52.667969,280.33203 c -1.028708,0 -1.865234,0.8347 -1.865234,1.86328 v 7.58399 c -1.144145,0.66922 -1.889031,1.86156 -1.892578,3.19726 -2.9e-5,2.07259 1.685389,3.75977 3.757812,3.75977 2.072425,0 3.75787,-1.68718 3.757813,-3.75977 -2.71e-4,-1.33857 -0.74616,-2.53386 -1.892578,-3.20508 v -7.57617 c 0,-1.02872 -0.83657,-1.86328 -1.865235,-1.86328 z"
           style="color:#000000;font-style:normal;font-variant:normal;font-weight:normal;font-stretch:normal;font-size:medium;line-height:normal;font-family:sans-serif;font-variant-ligatures:normal;font-variant-position:normal;font-variant-caps:normal;font-variant-numeric:normal;font-variant-alternates:normal;font-variant-east-asian:normal;font-feature-settings:normal;font-variation-settings:normal;text-indent:0;text-align:start;text-decoration:none;text-decoration-line:none;text-decoration-style:solid;text-decoration-color:#000000;letter-spacing:normal;word-spacing:normal;text-transform:none;writing-mode:lr-tb;direction:ltr;text-orientation:mixed;dominant-baseline:auto;baseline-shift:baseline;text-anchor:start;white-space:normal;shape-padding:0;shape-margin:0;inline-size:0;clip-rule:nonzero;display:inline;overflow:visible;visibility:visible;isolation:auto;mix-blend-mode:normal;color-interpolation:sRGB;color-interpolation-filters:linearRGB;solid-color:#000000;solid-opacity:1;vector-effect:none;fill:#f5f6e8;fill-opacity:1;fill-rule:nonzero;stroke:none;stroke-width:0.529167;stroke-linecap:round;stroke-linejoin:round;stroke-miterlimit:4;stroke-dasharray:none;stroke-dashoffset:0;stroke-opacity:1;color-rendering:auto;image-rendering:auto;shape-rendering:auto;text-rendering:auto;enable-background:accumulate;stop-color:#000000" />
        <path
           sodipodi:nodetypes="sscccccss"
           id="path1647"
           d="m -52.662109,281.6543 c -0.416447,0 -0.794922,0.30619 -0.794922,0.72461 v 8.75781 c -0.771346,0.32946 -1.322119,1.04091 -1.322266,1.89453 7e-6,1.16587 0.951323,2.11718 2.117188,2.11719 1.165864,-10e-6 2.11718,-0.95132 2.117187,-2.11719 -1.47e-4,-0.85372 -0.552727,-1.56513 -1.324219,-1.89453 v -8.75781 c 0,-0.41771 -0.376523,-0.72461 -0.792968,-0.72461 z"
           style="color:#000000;font-style:normal;font-variant:normal;font-weight:normal;font-stretch:normal;font-size:medium;line-height:normal;font-family:sans-serif;font-variant-ligatures:normal;font-variant-position:normal;font-variant-caps:normal;font-variant-numeric:normal;font-variant-alternates:normal;font-variant-east-asian:normal;font-feature-settings:normal;font-variation-settings:normal;text-indent:0;text-align:start;text-decoration:none;text-decoration-line:none;text-decoration-style:solid;text-decoration-color:#000000;letter-spacing:normal;word-spacing:normal;text-transform:none;writing-mode:lr-tb;direction:ltr;text-orientation:mixed;dominant-baseline:auto;baseline-shift:baseline;text-anchor:start;white-space:normal;shape-padding:0;shape-margin:0;inline-size:0;clip-rule:nonzero;display:inline;overflow:visible;visibility:visible;isolation:auto;mix-blend-mode:normal;color-interpolation:sRGB;color-interpolation-filters:linearRGB;solid-color:#000000;solid-opacity:1;vector-effect:none;fill:#dc1d4c;fill-opacity:1;fill-rule:nonzero;stroke:none;stroke-width:0.529167;stroke-linecap:round;stroke-linejoin:round;stroke-miterlimit:4;stroke-dasharray:none;stroke-dashoffset:0;stroke-opacity:1;color-rendering:auto;image-rendering:auto;shape-rendering:auto;text-rendering:auto;enable-background:accumulate;stop-color:#000000" />
        <path
           d="m -52.668105,280.33228 c -0.649917,0 -1.222478,0.33345 -1.556494,0.83819 0.294828,-0.195 0.647856,-0.30903 1.027327,-0.30903 1.028666,0 1.865519,0.83422 1.865519,1.86294 v 7.57628 c 1.146418,0.67122 1.89212,1.8664 1.892393,3.20497 2.3e-5,0.90187 -0.319318,1.73053 -0.850596,2.37919 0.841518,-0.69017 1.379794,-1.73763 1.379762,-2.90835 -2.72e-4,-1.33857 -0.745974,-2.53376 -1.892392,-3.20498 v -7.57628 c 0,-1.02872 -0.836854,-1.86293 -1.865519,-1.86293 z"
           style="color:#000000;font-style:normal;font-variant:normal;font-weight:normal;font-stretch:normal;font-size:medium;line-height:normal;font-family:sans-serif;font-variant-ligatures:normal;font-variant-position:normal;font-variant-caps:normal;font-variant-numeric:normal;font-variant-alternates:normal;font-variant-east-asian:normal;font-feature-settings:normal;font-variation-settings:normal;text-indent:0;text-align:start;text-decoration:none;text-decoration-line:none;text-decoration-style:solid;text-decoration-color:#000000;letter-spacing:normal;word-spacing:normal;text-transform:none;writing-mode:lr-tb;direction:ltr;text-orientation:mixed;dominant-baseline:auto;baseline-shift:baseline;text-anchor:start;white-space:normal;shape-padding:0;shape-margin:0;inline-size:0;clip-rule:nonzero;display:inline;overflow:visible;visibility:visible;isolation:auto;mix-blend-mode:normal;color-interpolation:sRGB;color-interpolation-filters:linearRGB;solid-color:#000000;solid-opacity:1;vector-effect:none;fill:#e5e5d8;fill-opacity:1;fill-rule:nonzero;stroke:none;stroke-width:0.529167;stroke-linecap:round;stroke-linejoin:round;stroke-miterlimit:4;stroke-dasharray:none;stroke-dashoffset:0;stroke-opacity:1;color-rendering:auto;image-rendering:auto;shape-rendering:auto;text-rendering:auto;enable-background:accumulate;stop-color:#000000"
           id="path1682"
           sodipodi:nodetypes="scsscccccss" />
        <path
           d="m -52.661903,281.65416 v 13.49427 c 1.165865,-1e-5 2.117177,-0.95132 2.117182,-2.11719 -1.45e-4,-0.85372 -0.552974,-1.56505 -1.324467,-1.89445 v -8.75813 c 0,-0.41771 -0.376269,-0.7245 -0.792715,-0.7245 z"
           style="fill:#bf1a42;fill-opacity:1;stroke:none;stroke-width:0.264583px;stroke-linecap:butt;stroke-linejoin:miter;stroke-opacity:1"
           id="path1687" />
        <path
           id="path1298"
           style="color:#000000;font-style:normal;font-variant:normal;font-weight:normal;font-stretch:normal;font-size:medium;line-height:normal;font-family:sans-serif;font-variant-ligatures:normal;font-variant-position:normal;font-variant-caps:normal;font-variant-numeric:normal;font-variant-alternates:normal;font-variant-east-asian:normal;font-feature-settings:normal;font-variation-settings:normal;text-indent:0;text-align:start;text-decoration:none;text-decoration-line:none;text-decoration-style:solid;text-decoration-color:#000000;letter-spacing:normal;word-spacing:normal;text-transform:none;writing-mode:lr-tb;direction:ltr;text-orientation:mixed;dominant-baseline:auto;baseline-shift:baseline;text-anchor:start;white-space:normal;shape-padding:0;shape-margin:0;inline-size:0;clip-rule:nonzero;display:inline;overflow:visible;visibility:visible;opacity:1;isolation:auto;mix-blend-mode:normal;color-interpolation:sRGB;color-interpolation-filters:linearRGB;solid-color:#000000;solid-opacity:1;vector-effect:none;fill:#000000;fill-opacity:1;fill-rule:nonzero;stroke:none;stroke-width:0.529167;stroke-linecap:round;stroke-linejoin:round;stroke-miterlimit:4;stroke-dasharray:none;stroke-dashoffset:0;stroke-opacity:1;color-rendering:auto;image-rendering:auto;shape-rendering:auto;text-rendering:auto;enable-background:accumulate;stop-color:#000000;stop-opacity:1"
           d="m -52.668104,280.33227 c -1.028708,0 -1.865001,0.83436 -1.865003,1.86294 v 7.58403 c -1.144143,0.66922 -1.889361,1.86152 -1.892906,3.19722 -2.9e-5,2.07259 1.685486,3.75998 3.757909,3.75998 2.072425,0 3.757967,-1.68739 3.757911,-3.75998 -2.64e-4,-1.33857 -0.745974,-2.53375 -1.892392,-3.20497 v -7.57628 c 0,-1.02872 -0.836854,-1.86294 -1.865519,-1.86294 z m 0,0.52917 c 0.744892,0 1.335836,0.58926 1.335836,1.33377 v 7.67808 a 0.26460995,0.26460995 0 0 0 0.144695,0.23409 c 1.074465,0.55416 1.74797,1.66 1.748213,2.86908 4.8e-5,1.78661 -1.442272,3.23081 -3.228744,3.23081 -1.78647,0 -3.22825,-1.44419 -3.228227,-3.23081 0.0039,-1.20591 0.678051,-2.30714 1.749764,-2.85926 a 0.26460995,0.26460995 0 0 0 0.142626,-0.23616 v -7.68583 c 0,-0.74465 0.590886,-1.33377 1.335837,-1.33377 z m 0.0062,0.79271 c -0.416447,0 -0.795301,0.30609 -0.795301,0.72451 v 8.75812 c -0.771345,0.32946 -1.321736,1.04084 -1.321882,1.89446 5e-6,1.16587 0.951317,2.11717 2.117183,2.11718 1.165865,-10e-6 2.117177,-0.95131 2.117182,-2.11718 -1.45e-4,-0.85372 -0.552974,-1.56506 -1.324467,-1.89446 v -8.75812 c 0,-0.41771 -0.376269,-0.72451 -0.792715,-0.72451 z m 2.603457,0 a 0.26458349,0.26458349 0 0 0 -0.264064,0.26407 0.26458349,0.26458349 0 0 0 0.264064,0.26562 h 0.679546 a 0.26458349,0.26458349 0 0 0 0.265617,-0.26562 0.26458349,0.26458349 0 0 0 -0.265617,-0.26407 z m -2.603457,0.52969 c 0.169939,0 0.263548,0.10346 0.263548,0.19482 v 8.87697 a 0.26460995,0.26460995 0 0 0 0.189138,0.25425 c 0.67379,0.20089 1.134692,0.81826 1.134814,1.52136 -6e-6,0.87989 -0.707615,1.588 -1.5875,1.58801 -0.879885,-1e-5 -1.588011,-0.70812 -1.588016,-1.58801 1.19e-4,-0.7031 0.46102,-1.32047 1.134814,-1.52136 a 0.26460995,0.26460995 0 0 0 0.187584,-0.25425 v -8.87697 c 0,-0.0906 0.09568,-0.19482 0.265618,-0.19482 z m 2.603457,0.79271 a 0.26458349,0.26458349 0 0 0 -0.264064,0.26562 0.26458349,0.26458349 0 0 0 0.264064,0.26355 h 1.142566 a 0.26458349,0.26458349 0 0 0 0.263552,-0.26355 0.26458349,0.26458349 0 0 0 -0.263552,-0.26562 z m 0,1.25987 a 0.26458349,0.26458349 0 0 0 -0.264064,0.26355 0.26458349,0.26458349 0 0 0 0.264064,0.26355 h 0.679546 a 0.26458349,0.26458349 0 0 0 0.265617,-0.26355 0.26458349,0.26458349 0 0 0 -0.265617,-0.26355 z m 0,1.12087 a 0.26458349,0.26458349 0 0 0 -0.264064,0.26561 0.26458349,0.26458349 0 0 0 0.264064,0.26407 h 1.142566 a 0.26458349,0.26458349 0 0 0 0.263552,-0.26407 0.26458349,0.26458349 0 0 0 -0.263552,-0.26561 z m 0,1.32446 a 0.26458349,0.26458349 0 0 0 -0.264064,0.26355 0.26458349,0.26458349 0 0 0 0.264064,0.26562 h 0.679546 a 0.26458349,0.26458349 0 0 0 0.265617,-0.26562 0.26458349,0.26458349 0 0 0 -0.265617,-0.26355 z m 0,1.3224 a 0.26458349,0.26458349 0 0 0 -0.264064,0.26562 0.26458349,0.26458349 0 0 0 0.264064,0.26355 h 1.142566 a 0.26458349,0.26458349 0 0 0 0.263552,-0.26355 0.26458349,0.26458349 0 0 0 -0.263552,-0.26562 z" />
      </g>
    </g>
  </g>
</svg>
